<?xml version="1.0" standalone="no"?>
<!DOCTYPE svg PUBLIC "-//W3C//DTD SVG 20010904//EN"
 "http://www.w3.org/TR/2001/REC-SVG-20010904/DTD/svg10.dtd">
<svg version="1.0" xmlns="http://www.w3.org/2000/svg"
 width="64.000000pt" height="64.000000pt" viewBox="0 0 64.000000 64.000000"
 preserveAspectRatio="xMidYMid meet">

<g transform="translate(0.000000,64.000000) scale(0.100000,-0.100000)"
fill="#000000" stroke="none">
<path d="M75 543 c-74 -15 -71 -9 -31 -58 34 -41 36 -48 36 -114 l0 -71 70 0
c63 0 70 2 70 20 0 17 -7 20 -45 20 l-45 0 0 60 0 60 33 0 c19 0 36 3 40 6 3
3 -6 24 -20 45 -26 40 -46 46 -108 32z"/>
<path d="M198 533 c25 -47 39 -50 222 -58 l175 -7 -25 26 c-24 24 -36 27 -145
36 -66 5 -146 12 -178 15 -54 6 -58 5 -49 -12z"/>
<path d="M260 381 l0 -81 148 0 c142 0 149 1 170 23 22 23 30 89 14 113 -4 8
-66 15 -169 19 l-163 8 0 -82z"/>
<path d="M365 248 c18 -58 31 -70 110 -103 44 -18 81 -40 83 -48 2 -12 49 -37
68 -37 2 0 4 43 4 95 0 52 -2 95 -4 95 -20 0 -66 -25 -66 -37 0 -9 -6 -13 -14
-10 -8 3 -33 11 -55 17 -25 6 -42 18 -46 30 -5 16 -15 20 -46 20 -37 0 -40 -2
-34 -22z"/>
</g>
</svg>
