<!-- icon666.com - MILLIONS vector ICONS FREE --><svg viewBox="0 0 60 60" xmlns="http://www.w3.org/2000/svg"><g id="Page-1" fill="none" fill-rule="evenodd"><g id="071---House-Security" transform="translate(-1 -1)"><g id="Icons" transform="translate(1 2)"><path id="Path" d="m44 16.73v8.8c-.454028-.3804838-.884803-.7878834-1.29-1.22-.1839516-.1963098-.4409726-.3076963-.71-.3076963s-.5260484.1113865-.71.3076963c-2.91 3.12-6.95 4.68-10.29 5.48v-.79c-.0032948-1.1032019-.8967981-1.9967052-2-2h-10c-1.1032019.0032948-1.9967052.8967981-2 2v20h-11c-1.10320187-.0032948-1.9967052-.8967981-2-2v-30.27c.02-.01.03-.02.05-.03l19.95-12.35 19.95 12.35c.02.01.03.02.05.03z" fill="#f5f5f5"></path><path id="Path" d="m43.95 16.7-19.95-12.35-1.5.929 18.45 11.421c.02.01.03.02.05.03v7.859c.095-.1.2-.18.29-.279.1839516-.1963098.4409726-.3076963.71-.3076963s.5260484.1113865.71.3076963c.405197.4321166.835972.8395162 1.29 1.22v-8.8c-.02-.01-.03-.02-.05-.03z" fill="#cfd8dc"></path><path id="Path" d="m46.7 16.05c-.2762314.4534188-.7225151.7773535-1.2392133.8994822s-1.0607848.0322815-1.5107867-.2494822l-19.95-12.35-19.95 12.35c-.60819479.4130679-1.39398591.459146-2.04629032.1199928-.65230441-.3391533-1.06594138-1.0088513-1.07715817-1.7439704-.01121679-.7351192.38179526-1.4171253 1.02344849-1.7760224l21-13c.642891-.39988152 1.457109-.39988152 2.1 0l21 13c.9379759.5805536 1.2287939 1.8109372.65 2.75z" fill="#f44335"></path><path id="Path" d="m46.05 13.3-21-13c-.6428233-.40011856-1.4571767-.40011856-2.1 0l-.45.279 20.55 12.721c.9379759.5805536 1.2287939 1.8109372.65 2.75-.0761983.1193258-.1639546.2308633-.262.333l.512.317c.6081948.4130679 1.3939859.459146 2.0462903.1199928.6523044-.3391533 1.0659414-1.0088513 1.0771582-1.7439704.0112168-.7351192-.3817953-1.4171253-1.0234485-1.7760224z" fill="#c81e1e"></path><circle id="Oval" cx="24" cy="17" fill="#02a9f4" r="5"></circle><path id="Path" d="m24 12c-.5100781.007121-1.0160138.0927928-1.5.254 2.0807519.6438254 3.4994946 2.5679184 3.4994946 4.746s-1.4187427 4.1021746-3.4994946 4.746c1.8757024.5955702 3.9262648.0330725 5.2355561-1.4361857 1.3092914-1.4692582 1.6327423-3.5708265.8258444-5.3657859s-2.5934199-2.9480201-4.5614005-2.9440284z" fill="#0377bc"></path><path id="Path" d="m8 9.55v-6.55c0-.55228475.44771525-1 1-1h4c.5522847 0 1 .44771525 1 1v2.84z" fill="#c81e1e"></path><path id="Path" d="m25 31.64c.23 2.83 1.18 10.87 4.81 17.36h-12.81v-20c.0032948-1.1032019.8967981-1.9967052 2-2h10c1.1032019.0032948 1.9967052.8967981 2 2v.79c-1.6634954.3889364-3.3556463.6430935-5.06.76-.5602381.0420781-.9807231.5296618-.94 1.09z" fill="#91562d"></path><path id="Path" d="m25.94 30.55c1.7043537-.1169065 3.3965046-.3710636 5.06-.76v-.79c-.0032948-1.1032019-.8967981-1.9967052-2-2h-3c1.1032019.0032948 1.9967052.8967981 2 2v.79c-1.6634954.3889364-3.3556463.6430935-5.06.76-.5602381.0420781-.9807231.5296618-.94 1.09.23 2.83 1.18 10.87 4.81 17.36h3c-3.63-6.49-4.58-14.53-4.81-17.36-.0407231-.5603382.3797619-1.0479219.94-1.09z" fill="#6d4122"></path><path id="Path" d="m59 31.64c-.39 4.79-2.83 24.44-16.84 26.35-.1064322.0100024-.2135678.0100024-.32 0-5.72-.78-9.51-4.52-12.03-8.99-3.63-6.49-4.58-14.53-4.81-17.36-.0407231-.5603382.3797619-1.0479219.94-1.09 1.7043537-.1169065 3.3965046-.3710636 5.06-.76 3.34-.8 7.38-2.36 10.29-5.48.1839516-.1963098.4409726-.3076963.71-.3076963s.5260484.1113865.71.3076963c.405197.4321166.835972.8395162 1.29 1.22 4.78 4.05 11.54 4.86 14.06 5.02.5602381.0420781.9807231.5296618.94 1.09z" fill="#60a917"></path><path id="Path" d="m58.06 30.55c-2.52-.16-9.28-.97-14.06-5.02-.454028-.3804838-.884803-.7878834-1.29-1.22-.1839516-.1963098-.4409726-.3076963-.71-.3076963s-.5260484.1113865-.71.3076963c-.254.273-.527.519-.8.768.167.153.335.306.508.452 4.78 4.05 11.54 4.86 14.06 5.02.5610385.0410339.982694.5289367.942 1.09-.377 4.632-2.673 23.154-15.49 26.1.433.1.873.187 1.33.249.1064322.0100024.2135678.0100024.32 0 14.01-1.909 16.45-21.559 16.84-26.349.0407231-.5603382-.3797619-1.0479219-.94-1.09z" fill="#549414"></path><path id="Path" d="m42 53.967c-8.926-1.558-11.8-13.673-12.68-19.774 4.5872609-.6311388 8.945092-2.3948919 12.68-5.132 3.7350935 2.7367752 8.0928373 4.500493 12.68 5.132-.88 6.107-3.753 18.231-12.68 19.774z" fill="#a4c400"></path><path id="Path" d="m42 29.061c-.488.382-.991.733-1.5 1.065 3.4071595 2.1104282 7.2132094 3.4949725 11.18 4.067-.832 5.747-3.426 16.829-11.175 19.394.4899835.163352.991342.2903629 1.5.38 8.922-1.543 11.795-13.667 12.675-19.774-4.5871627-.631507-8.9449065-2.3952248-12.68-5.132z" fill="#90ac00"></path></g><g id="Icons_copy" fill="#000"><g fill-rule="nonzero"><path id="Shape" d="m7 52h23.2c2.64 4.487 6.591 8.174 12.5 8.979.1960519.0273335.3949481.0273335.591 0 14.535-1.979 17.224-21.362 17.702-27.255.0465801-.5366617-.1252923-1.069423-.476712-1.4776873-.3514197-.4082642-.8526704-.6575082-1.390288-.6913127-2.043-.132-8.5-.847-13.126-4.513v-7.042c1.3408371.0001192 2.5189453-.8895256 2.8857977-2.1792013.3668525-1.2896757-.1666392-2.6661906-1.3067977-3.3717987l-21-13c-.9663752-.60403937-2.1926248-.60403937-3.159 0l-7.42 4.594v-1.043c0-1.1045695-.8954305-2-2-2h-4c-1.1045695 0-2 .8954305-2 2v6l-5.578 3.449c-1.14145671.7025815-1.67638634 2.0785696-1.30920827 3.3676485s1.546863 2.1766804 2.88720827 2.1723515v29.011c0 1.6568542 1.34314575 3 3 3zm-1-3v-29.708l19-11.764 19 11.763v6c-.7967161-.44577-1.7922807-.3103634-2.441.332-2.3819348 2.3644607-5.3557068 4.0451081-8.61 4.866-.2481701-1.4357008-1.4920123-2.4855222-2.949-2.489h-10c-1.6568542 0-3 1.3431458-3 3v19h-10c-.55228475 0-1-.4477153-1-1zm13 1v-19c0-.5522847.4477153-1 1-1h10c.5430463-.0001564.9869669.4331101 1 .976-1.3586879.2877055-2.7356351.4811664-4.121.579-.5376176.0338045-1.0388683.2830485-1.390288.6913127-.3514197.4082643-.5232921.9410256-.476712 1.4776873.4136735 5.6240823 1.8080235 11.1324417 4.12 16.276zm40-16.438c-.319 3.927-2.587 23.612-16.023 25.438-13.39-1.826-15.658-21.511-15.977-25.449 3.165-.205 11.061-1.254 15.976-6.561 4.96 5.31 12.856 6.356 16.024 6.56zm-49-28.562h4v2.281l-4 2.477zm-6.85 12.525c-.28957766-.4692711-.14463308-1.0843909.324-1.375l21-13c.3227288-.19795821.7292712-.19795821 1.052 0l21 13c.2254579.1397482.3861558.363347.4467322.6215937.0605764.2582466.0160676.5299804-.1237322.7554063-.2982863.4584988-.9044741.6012348-1.376.324l-19.947-12.351c-.3223335-.19935391-.7296665-.19935391-1.052 0l-19.946 12.351c-.22587369.1398506-.49811258.184075-.75664002.1229139-.25852744-.061161-.4820926-.2226801-.62135998-.4489139z"></path><path id="Shape" d="m25 25c3.3137085 0 6-2.6862915 6-6s-2.6862915-6-6-6-6 2.6862915-6 6c.0033074 3.3123376 2.6876624 5.9966926 6 6zm0-10c2.209139 0 4 1.790861 4 4s-1.790861 4-4 4-4-1.790861-4-4 1.790861-4 4-4z"></path><path id="Shape" d="m30.164 35.206c-.5402741.0857043-.9114163.58962-.833 1.131 1.013 7 4.115 18.977 13.5 20.615.0567878.0099943.1143395.0150134.172.015.0569978.0000147.1138855-.0050048.17-.015 9.381-1.622 12.483-13.612 13.5-20.615.0784163-.54138-.2927259-1.0452957-.833-1.131-4.4187809-.6077952-8.6176297-2.302797-12.22-4.933-.3619094-.2830051-.8700906-.2830051-1.232 0-3.6035281 2.6308129-7.8038243 4.3258441-12.224 4.933zm24.377 1.806c-.923 5.575-3.712 16.436-11.541 17.938-7.831-1.514-10.621-12.368-11.544-17.938 4.1445962-.7058664 8.0846582-2.3096737 11.544-4.699 3.458669 2.3885243 7.3975736 3.9922773 11.541 4.699z"></path></g><path id="Path" d="m38.293 46.707 2 2c.1874927.1875494.4418052.2929434.707.293h.071c.2895429-.0211914.5555841-.1671673.729-.4l6-8c.3313708-.4418278.2418278-1.0686291-.2-1.4-.4418278-.3313708-1.0686291-.2418278-1.4.2l-5.308 7.078-1.185-1.185c-.3923789-.3789722-1.0160848-.3735524-1.4018186.0121814s-.3911536 1.0094397-.0121814 1.4018186z"></path></g></g></g></svg>