<!-- icon666.com - MILLIONS vector ICONS FREE --><svg id="Layer_1" enable-background="new 0 0 132 132" viewBox="0 0 132 132" xmlns="http://www.w3.org/2000/svg"><g id="_x39_1"><g><path d="m130.0019836 65.995842c0 35.3466797-28.6481857 64.0051498-63.9948578 64.0051498s-64.0051438-28.6584701-64.0051438-64.0051498 28.6584623-63.9951005 64.0051439-63.9951005 63.9948577 28.6484265 63.9948577 63.9951005z" fill="#ffbc50" style="fill: rgb(224, 56, 0);"></path></g><g><path d="m129.9980164 65.9990158c0 35.3400269-28.6401367 63.9999924-63.9902344 63.9999924-35.3498535 0-64.0097656-28.6599655-64.0097656-63.9999924 0-1.8800049.079834-3.7500038.25-5.5899696.0397949-.5700073.0998535-1.1400146.1599121-1.7000122.4499512-3.9899902 1.2800293-7.8800049 2.4299314-11.6099854.1799316-.5700073.3601074-1.1400146.5500488-1.710022 8.579834-25.2399883 32.4799805-43.3900146 60.619873-43.3900146 35.3500979.0000017 63.9902347 28.6500263 63.9902347 64.0000038z" fill="#ffbc50" style="fill: rgb(224, 56, 0);"></path></g><g><path d="m130 66c0 35.3369827-28.6420593 64-63.9902344 64-35.3498535 0-64.0097656-28.6600342-64.0097656-64 0-36.3454189 29.5808315-64 64.0097656-64 35.432724 0 63.9902344 28.7356834 63.9902344 64z" fill="#ffbc50" style="fill: rgb(224, 56, 0);"></path></g><g><path d="m117.177948 27.5690212h-6.6999512v-7.5899658c-.5500488-.5400391-1.1201172-1.0700073-1.7001953-1.5900269v9.1799927h-14.5200195v-11.6199951h11.6401367c-.7299805-.5800171-1.4699707-1.1500244-2.2299805-1.7000122h-32.7001953c-.4697266 0-.8498535.3800049-.8498535.8500366 0 .4699707.380127.8499756.8498535.8499756h5.3701172v11.6199951h-4.3200684c-.4699707 0-.8498535.3800049-.8498535.8500366 0 .4699707.3798828.8499756.8498535.8499756h46.4001465c-.4001465-.5800171-.8200683-1.1400146-1.2399902-1.7000122zm-24.6201172 0h-14.5200195v-11.6199951h14.5200195z" fill="#f49f16" style="fill: rgb(255, 255, 255);"></path></g><g><path d="m13.02878 47.0941048h14.5205078v11.6152344h-14.5205078zm16.2197265 0h14.5205059v11.6152344h-14.5205059zm21.5893536-1.7050782h-45.4499497c-.1899414.5700073-.3701172 1.1400146-.5500488 1.710022h6.4899907v11.6099854h-8.9199222c-.0600586.5599976-.1201172 1.1300049-.1599121 1.7000122h47.5397949c.4699707 0 .8500977-.3800049.8500977-.8500366 0-.4699707-.380127-.8499756-.8500977-.8499756h-4.3200684v-11.6099854h5.3701172c.4699707 0 .8500977-.3900146.8500977-.8600464-.0000016-.4599609-.3801286-.8499756-.8500993-.8499756z" fill="#f49f16" style="fill: rgb(255, 255, 255);"></path></g><g><path d="m125.4199219 89.8099976c.1999512-.4899902.3999023-.9899902.5800781-1.5h-33.8601074c-.420166 0-.75.3400269-.75.75s.329834.75.75.75h5.4699707v9.539978h-5.4699707c-.420166 0-.75.3300171-.75.75 0 .4100342.329834.75.75.75h27.5400391c.329834-.4899902.6398926-.9899902.9499512-1.5h-5.3100586v-9.539978zm-11.6000977 9.539978h-14.7099609v-9.539978h14.7099609z" fill="#f49f16" style="fill: rgb(255, 255, 255);"></path></g><g><path d="m89.6332703 122.7523117h-5.4707031v-9.5395508h5.4707031c.4140625 0 .75-.3359375.75-.75s-.3359375-.75-.75-.75h-6.2207031-16.2197266-16.2197266-6.2197266c-.4140625 0-.75.3359375-.75.75s.3359375.75.75.75h5.4697266v9.5395508h-5.4697266c-.4140625 0-.75.3359375-.75.75s.3359375.75.75.75h6.2197266 16.2197266 16.2197266 6.2207031c.4140625 0 .75-.3359375.75-.75s-.3359375-.75-.75-.75zm-37.9101563-9.5395508h14.7197266v9.5395508h-14.7197266zm16.2197266 0h14.7197266v9.5395508h-14.7197266z" fill="#f49f16" style="fill: rgb(255, 255, 255);"></path></g><g><g><g><path d="m36.4305687 82.3382187v18.6104584c0 2.5413513-2.060173 4.6015244-4.6015224 4.6015244h-12.3729802c-2.5413513 0-4.6015224-2.060173-4.6015224-4.6015244v-18.6104584c0-2.5413513 2.0601711-4.6015244 4.6015224-4.6015244h12.3729801c2.5413495 0 4.6015225 2.0601731 4.6015225 4.6015244z" fill="#24272b"></path></g><g><path d="m36.3398438 101.8633423c-.4199219 2.0999756-2.2800293 3.6900024-4.5100098 3.6900024h-12.369873c-2.5500488 0-4.6101074-2.0599976-4.6101074-4.6000366v-18.6199951c0-2.2299805 1.5800781-4.0800781 3.6899414-4.5100098-.0598145.3000488-.0898438.6101074-.0898438.9200439v18.6099854c0 2.539978 2.0598145 4.5999756 4.5998535 4.5999756h12.3701172c.3100586 0 .619873-.0299683.9199219-.0899658z" fill="#13181e"></path></g><g><path d="m48.3307838 87.0585785v9.2171021h-21.6546211c-2.5442314 0-4.6071262-2.0628738-4.6071262-4.6071091 0-1.2749863.5157185-2.4267731 1.3494797-3.2605133.833744-.8337631 1.9855309-1.3494797 3.2576466-1.3494797z" fill="#fff"></path></g><g><path d="m48.3309746 87.0594864v9.2171173h-21.654623c-.1661644 0-.3294792-.008606-.4899254-.0257797-.1289349-.0143356-.2550011-.0315475-.3781986-.0573196-.0315132-.0056992-.0601749-.0114365-.0888176-.0171738-.0659103-.0143356-.1289349-.0286789-.194828-.0458527-.060173-.0143051-.1203461-.0315094-.1776352-.0487213-.4727535-.1432495-.9139767-.358139-1.3093643-.6360474-.0573063-.0372467-.1088772-.0773621-.1633148-.1203156-.0229263-.0172043-.0487022-.0372772-.0744953-.0573196-.0630417-.05159-.1260662-.1031418-.1890907-.1604309-.0744972-.0658875-.1489925-.1375198-.2206211-.2091446-.0315113-.0344162-.0658913-.0687637-.0974216-.1031799-.0573063-.0630188-.1145935-.1289139-.1718998-.194809-.0630417-.0773621-.1231995-.1547241-.1805038-.2378235-.1203308-.1632996-.229208-.3351974-.323761-.5157013-.0315132-.0544586-.0601749-.1117477-.0859509-.1690369-.03438-.0658875-.0658913-.1318207-.094553-.2005768-.2349434-.5558548-.3667278-1.1660919-.3667278-1.8078766 0-1.2750015.5157185-2.4267502 1.3494625-3.2605515.8337612-.833725 1.9855309-1.3494568 3.2576466-1.3494568h2.5614223c-1.2721157 0-2.4238853.5157318-3.2576466 1.3494568-.833744.8338013-1.3494625 1.9855499-1.3494625 3.2605515 0 .0078812.000021.0157547.0000591.0236206.0060196 1.1993637 1.0208378 2.151001 2.2202148 2.151001h16.8269176c1.2264175 0 2.2206268-.9942093 2.2206268-2.2206268v-4.564003h2.4324913z" fill="#e5f5f9" style="fill: rgb(145, 147, 151);"></path></g><g><path d="m61.3986168 70.5268021v27.7258224c0 1.8988342-1.5393105 3.4381485-3.4381485 3.4381485h-6.1915321c-1.898838 0-3.4381523-1.5393143-3.4381523-3.4381485v-27.7258224z" fill="#fff"></path></g><g><path d="m61.3986168 70.5268021v27.7258224c0 1.8988342-1.5393105 3.4381485-3.4381485 3.4381485h-6.1915321c-1.898838 0-3.4381523-1.5393143-3.4381523-3.4381485v-27.7258224z" fill="#fff"></path></g><g><path d="m61.4014969 70.5293121v27.7199707c0 1.8999634-1.5397949 3.4400024-3.4399414 3.4400024h-6.1899414c-1.9001465 0-3.4401855-1.5400391-3.4401855-3.4400024v-27.7199707z" fill="#fff"></path></g><g><path d="m61.4014969 70.5293121v11.7900391l-13.0700684-5.4101563v-6.3798828z" fill="#e5f5f9" style="fill: rgb(145, 147, 151);"></path></g><g><path d="m61.2916336 99.0692902c-.3601074 1.5099487-1.7102051 2.6199951-3.3300781 2.6199951h-6.1899414c-1.9001465 0-3.4401855-1.5400391-3.4401855-3.4400024v-27.7199708h2.5102539v25.2099609c0 1.8999634 1.5397949 3.4400024 3.4399414 3.4400024h6.1899414c.2800292.0000001.5600585-.0300292.8200683-.1099852z" fill="#e5f5f9" style="fill: rgb(145, 147, 151);"></path></g><g><g><path d="m94.6680374 57.9991913c6.6017075-10.319912 16.1052399-15.8966408 23.3754807-12.8852081 5.3216705 2.2043076 8.2357101 8.5084801 8.3843307 16.4221458.0859299 4.5757408-4.590332 7.7170296-8.818512 5.9656639z" fill="#d3e6ed" style="fill: rgb(36, 39, 43);"></path></g><g><path d="m108.6558533 69.9685822c-5.6114731 13.5472793-16.6901703 21.8271408-24.7419358 18.4919891-8.0540466-3.3360901-10.0308609-17.0237198-4.4193878-30.5710068 5.6124039-13.5495415 16.6888428-21.830349 24.7428818-18.4942551 8.0517654 3.3351479 10.030838 17.0237313 4.4184418 30.5732728z" fill="#fff"></path></g><g><path d="m86.2244034 82.8826065c-4.6508942-1.9264603-6.6087875-11.8569717-1.9821625-23.0266304 4.6271286-11.1708755 13.0338364-16.8091812 17.6847305-14.8827209 4.6508865 1.9264603 6.6084442 11.8577881 1.9813156 23.0286598-4.626625 11.1696625-13.0329971 16.8071518-17.6838836 14.8806915z" fill="#24272b"></path></g><g><path d="m86.8314285 59.859272c-4.6298828 11.1700401-2.6699219 21.0999718 1.9802246 23.0200157.2399902.0999756.5.1800537.7600098.2299805-1.2402344.25-2.380127.1700439-3.3500977-.2299805-4.6499023-1.9200439-6.6098633-11.8499756-1.9799805-23.0200157 4.3898926-10.5899658 12.1699219-16.210083 16.9299316-15.1199951-4.659912.9099121-10.6899413 6.2800293-14.3400878 15.1199951z" fill="#13181e"></path></g><g><path d="m88.7565002 76.769577c-.5435638-.2251511-1.4661255-1.5129166-1.779953-4.1377563-.3831711-3.2057114.2744675-7.0683517 1.8518143-10.8764114 1.5775909-3.808651 3.8440475-7.0053902 6.3819656-9.001442 2.0780869-1.6344795 3.6410599-1.8927956 4.1845398-1.6676788s1.466011 1.5129623 1.7796936 4.1381454c.3831558 3.2059975-.2746582 7.0690613-1.8522491 10.8777084-1.5773544 3.8080597-3.8436356 7.0043793-6.3813553 9.0002136-2.0779571 1.6341401-3.640892 1.8923722-4.1844559 1.6672211z" fill="#43a1ff"></path></g><g><path d="m99.861702 51.4592476c-.6000977.2700195-1.3000488.6899414-2.0700684 1.2900391-2.5300293 2-4.8000488 5.1999512-6.380127 9.0100098-1.5800781 3.800045-2.2299805 7.6699181-1.8498535 10.8699913.2299805 1.9599609.8098145 3.1800537 1.3098145 3.7598877-1.0200195.4801025-1.7700195.5300293-2.119873.380127-.5400391-.2199707-1.4599609-1.5100098-1.7800293-4.1400146-.3798828-3.2000732.2800293-7.0699463 1.8598633-10.8699913 1.5700684-3.8100586 3.8400879-7.0100098 6.380127-9.0100098 2.0800781-1.6300049 3.6398926-1.8900146 4.1799316-1.6600342.1401366.0599364.3000487.1800536.4702148.369995z" fill="#2c8cff"></path></g><g><path d="m104.2415848 39.399189c-7.7399902-3.2099609-18.2700195 4.3100586-24.0600586 16.9300537-.2399902.5100098-.4699707 1.0300293-.6899414 1.5599365-5.6101074 13.550045-3.6298828 27.2401085 4.4199219 30.5700645l-8.4799805-3.5100098-50.4399414-20.8898925c-8.0500488-3.3400841-10.0300293-17.0300255-4.4199219-30.5800743.2199707-.5300293.4499512-1.0500488.6799316-1.5600605 5.7900391-12.619873 16.3200684-20.1398926 24.0600586-16.9299316l50.4399414 20.8900166z" fill="#fff"></path></g><g><path d="m34.0002022 43.409874c0 2.1741829-1.7673569 3.9415398-3.9415398 3.9415398s-3.9411964-1.7673569-3.9411964-3.9415398c0-2.1741791 1.7670135-3.9415359 3.9411964-3.9415359s3.9415398 1.7673568 3.9415398 3.9415359z" fill="#fc545d"></path></g><g><path d="m95.7515945 35.8792915-50.4399414-20.8900165c-.9699707-.4000244-1.9802246-.6400146-3.0300293-.7099609-.0200195 0-.0500488-.0100098-.0800781 0-.2299805-.0200195-.4599609-.0300293-.6899414-.0300293-6.0800781 0-12.9899902 5.1300049-17.9199219 13.2600098-.2102051.3399658-.420166.6999512-.6201172 1.0500488-.6098633 1.0699463-1.1899414 2.1999512-1.7199707 3.3598633-.2299805.5100117-.4599609 1.0300312-.6799316 1.5600605-5.6101074 13.5500488-3.630127 27.2399902 4.4199219 30.5800743l1.4299316.5898438 49.0100098 20.3000487 8.130127 3.3601074c-2.2897186-1.1448593-3.9402924-2.9003372-5.0100098-4.9700928h-.0100098c-3.1901855-5.9899902-3.0600586-15.7600098.9499512-25.4500694.2199707-.5299072.4499512-1.0499268.6899414-1.5599365 5.7900391-12.6199951 16.3200684-20.1400146 24.0600586-16.9300537zm-19.4899902 20.670044c-2.9499512 7.1298828-4.0700684 14.5699425-3.1499023 20.9599571.0423279.2942276.0886841.5853271.1391602.8731079.2264023 1.290657-1.0788498 2.3135223-2.2895508 1.8122787l-44.6496583-18.4854316c-1.3300781-.5500488-2.4899902-1.3800049-3.4802246-2.4499512-2.5839291-6.5518494-2.0629425-16.2607956 2.0265312-25.8516388l50.4999886 20.9254341c.8591843.3560181 1.2668152 1.3413544.9102631 2.2003212z" fill="#e5f5f9" style="fill: rgb(145, 147, 151);"></path></g><g><path d="m118.0428391 45.1137047c-5.8127823-2.4077339-13.0554352.6748886-19.0984116 7.2837868-2.9316864 3.2062302-7.54702 4.2468605-11.5604477 2.584446l-64.2872505-26.6286527c5.992918-10.4236317 15.2419662-16.2541199 22.219574-13.3639002z" fill="#fff"></path></g></g></g><g><g><path d="m57.2782822 53.9596214c0 2.1741829-1.7673569 3.9415398-3.9415398 3.9415398-2.1741791 0-3.9411964-1.7673569-3.9411964-3.9415398s1.7670174-3.9415398 3.9411964-3.9415398c2.1741829.0000001 3.9415398 1.7673569 3.9415398 3.9415398z" fill="#ffbc50" style="fill: rgb(224, 56, 0);"></path></g><g><path d="m45.8183022 48.5280685c0 2.1741829-1.7673569 3.9415398-3.9415359 3.9415398-2.1741829 0-3.9411964-1.7673569-3.9411964-3.9415398s1.7670135-3.9415398 3.9411964-3.9415398c2.174179.0000001 3.9415359 1.767357 3.9415359 3.9415398z" fill="#4fe88d"></path></g></g><g><g><path d="m54.3469543 57.7602844c-.3225822.0981102-.6592064.1402321-1.0098686.1402321-2.1741829 0-3.9415398-1.7673569-3.9415398-3.9413681 0-2.1741829 1.7673569-3.9415398 3.9415398-3.9415398.3506622 0 .6872864.0421219 1.0098686.1402321-1.6831131.4487724-2.9176292 1.977787-2.9176292 3.8013077 0 1.8233452 1.2345161 3.3521919 2.9176292 3.801136z" fill="#ffb32c"></path></g><g><path d="m42.9010811 52.331852c-.3225822.0982819-.6732445.1403999-1.0239067.1403999-2.1738396 0-3.9411964-1.7673569-3.9411964-3.9415398 0-2.1740074 1.7673569-3.9413643 3.9411964-3.9413643.3506622 0 .7013245.0419464 1.0239067.1402283-1.697155.4489479-2.931324 1.9777908-2.931324 3.801136 0 1.8235207 1.234169 3.3525353 2.931324 3.8011399z" fill="#35d175"></path></g><g><path d="m31.0627689 47.2123032c-.3225842.0982819-.6592064.1402283-1.0098705.1402283-2.174181 0-3.9411964-1.7673569-3.9411964-3.9413681 0-2.1741791 1.7670155-3.9415359 3.9411964-3.9415359.3506641 0 .6872864.0421181 1.0098705.1403999-1.6831169.4486046-2.9172878 1.9776192-2.9172878 3.801136 0 1.8233489 1.2341709 3.3521919 2.9172878 3.8011398z" fill="#f14448"></path></g></g></g><g opacity=".3"><g><path d="m90.3393555 70.3572998c-.3242188-.4125977-.2529297-1.0097656.1601563-1.3339844 2.0126953-1.5820313 3.8505859-4.2124023 5.1738281-7.40625.2021484-.4858398.7636719-.7138672 1.2412109-.5136719.4853516.2006836.7148438.7563477.5146484 1.2412109-1.4462891 3.4902344-3.4912109 6.3925781-5.7558594 8.1728516-.409729.3222581-1.0078277.2551804-1.3339843-.1601562z" fill="#fff"></path></g></g><g><g opacity=".5"><g opacity=".5"><path d="m21.6293697 79.8542938 10.0552311.0000153c.6186676 0 1.1192856.5006332 1.1192818 1.1193161 0 .6186829-.500618 1.1193161-1.1192837 1.1193085l-10.0552311-.0000077c-.6186676 0-1.1192837-.5006332-1.1192837-1.1193161s.500618-1.1193161 1.1192856-1.1193161z" fill="#fff"></path></g></g></g></g></svg>