<!-- icon666.com - MILLIONS vector ICONS FREE --><svg id="Layer_11" viewBox="0 0 60 60" xmlns="http://www.w3.org/2000/svg" data-name="Layer 11"><rect fill="#00bcd4" height="16" rx="2" width="24" x="1" y="35" style="fill: rgb(164, 196, 0);"></rect><path d="m23 35h-3a2.006 2.006 0 0 1 2 2v12a2.006 2.006 0 0 1 -2 2h3a2.006 2.006 0 0 0 2-2v-12a2.006 2.006 0 0 0 -2-2z" fill="#00838f"></path><path d="m9 51h8v4h-8z" fill="#3f51b5"></path><path d="m14 51h3v4h-3z" fill="#0377bc"></path><path d="m22 58a1 1 0 0 1 -1 1h-16a1 1 0 0 1 -1-1 3 3 0 0 1 3-3h12a3 3 0 0 1 3 3z" fill="#607d8b"></path><path d="m19 55h-3a3 3 0 0 1 3 3 1 1 0 0 1 -1 1h3a1 1 0 0 0 1-1 3 3 0 0 0 -3-3z" fill="#37474f"></path><rect fill="#00bcd4" height="16" rx="2" width="24" x="35" y="35" style="fill: rgb(164, 196, 0);"></rect><path d="m57 35h-3a2.006 2.006 0 0 1 2 2v12a2.006 2.006 0 0 1 -2 2h3a2.006 2.006 0 0 0 2-2v-12a2.006 2.006 0 0 0 -2-2z" fill="#00838f"></path><path d="m43 51h8v4h-8z" fill="#3f51b5"></path><path d="m48 51h3v4h-3z" fill="#283593"></path><path d="m56 58a1 1 0 0 1 -1 1h-16a1 1 0 0 1 -1-1 3 3 0 0 1 3-3h12a3 3 0 0 1 3 3z" fill="#607d8b"></path><path d="m53 55h-3a3 3 0 0 1 3 3 1 1 0 0 1 -1 1h3a1 1 0 0 0 1-1 3 3 0 0 0 -3-3z" fill="#37474f"></path><path d="m59 3v12a2.006 2.006 0 0 1 -2 2h-4v-16h4a2.006 2.006 0 0 1 2 2z" fill="#00bcd4" style="fill: rgb(164, 196, 0);"></path><path d="m57 1h-3a2.006 2.006 0 0 1 2 2v12a2.006 2.006 0 0 1 -2 2h3a2.006 2.006 0 0 0 2-2v-12a2.006 2.006 0 0 0 -2-2z" fill="#00838f"></path><path d="m7 1v16h-4a2.006 2.006 0 0 1 -2-2v-12a2.006 2.006 0 0 1 2-2z" fill="#00bcd4" style="fill: rgb(164, 196, 0);"></path><path d="m7 1v16h46v-16zm11 10a1 1 0 0 1 -1 1h-4a1 1 0 0 1 -1-1v-4a1 1 0 0 1 1-1h4a1 1 0 0 1 1 1zm10 0a1 1 0 0 1 -1 1h-4a1 1 0 0 1 -1-1v-4a1 1 0 0 1 1-1h4a1 1 0 0 1 1 1zm10 0a1 1 0 0 1 -1 1h-4a1 1 0 0 1 -1-1v-4a1 1 0 0 1 1-1h4a1 1 0 0 1 1 1zm10 0a1 1 0 0 1 -1 1h-4a1 1 0 0 1 -1-1v-4a1 1 0 0 1 1-1h4a1 1 0 0 1 1 1z" fill="#3f51b5"></path><rect fill="#f44335" height="6" rx="1" width="6" x="12" y="6"></rect><rect fill="#ff9801" height="6" rx="1" width="6" x="22" y="6"></rect><rect fill="#ffdf00" height="6" rx="1" width="6" x="32" y="6"></rect><rect fill="#a4c400" height="6" rx="1" width="6" x="42" y="6"></rect><g fill="#fff"><path d="m5 42a1 1 0 0 1 -.707-1.707l2-2a1 1 0 0 1 1.414 1.414l-2 2a1 1 0 0 1 -.707.293z" fill="#fff"></path><path d="m5 47a1 1 0 0 1 -.707-1.707l7-7a1 1 0 0 1 1.414 1.414l-7 7a1 1 0 0 1 -.707.293z" fill="#fff"></path><path d="m39 42a1 1 0 0 1 -.707-1.707l2-2a1 1 0 0 1 1.414 1.414l-2 2a1 1 0 0 1 -.707.293z" fill="#fff"></path><path d="m39 47a1 1 0 0 1 -.707-1.707l7-7a1 1 0 0 1 1.414 1.414l-7 7a1 1 0 0 1 -.707.293z" fill="#fff"></path></g><path d="m57 0h-54a3 3 0 0 0 -3 3v12a3 3 0 0 0 3 3h21v2a2 2 0 0 1 -2 2h-4a4 4 0 0 0 -4 4v8h-11a3 3 0 0 0 -3 3v12a3 3 0 0 0 3 3h5v2h-1a4 4 0 0 0 -4 4 2 2 0 0 0 2 2h16a2 2 0 0 0 2-2 4 4 0 0 0 -4-4h-1v-2h5a3 3 0 0 0 3-3v-12a3 3 0 0 0 -3-3h-7v-8a2 2 0 0 1 2-2h4a4 4 0 0 0 4-4v-2h8v2a4 4 0 0 0 4 4h4a2 2 0 0 1 2 2v8h-7a3 3 0 0 0 -3 3v12a3 3 0 0 0 3 3h5v2h-1a4 4 0 0 0 -4 4 2 2 0 0 0 2 2h16a2 2 0 0 0 2-2 4 4 0 0 0 -4-4h-1v-2h5a3 3 0 0 0 3-3v-12a3 3 0 0 0 -3-3h-11v-8a4 4 0 0 0 -4-4h-4a2 2 0 0 1 -2-2v-2h21a3 3 0 0 0 3-3v-12a3 3 0 0 0 -3-3zm-36 58h-16a2 2 0 0 1 2-2h12a2.005 2.005 0 0 1 2 2zm-5-4h-6v-2h6zm8-17v12a1 1 0 0 1 -1 1h-20a1 1 0 0 1 -1-1v-12a1 1 0 0 1 1-1h20a1 1 0 0 1 1 1zm31 21h-16a2 2 0 0 1 2-2h12a2.005 2.005 0 0 1 2 2zm-5-4h-6v-2h6zm8-17v12a1 1 0 0 1 -1 1h-20a1 1 0 0 1 -1-1v-12a1 1 0 0 1 1-1h20a1 1 0 0 1 1 1zm-56-22v-12a1 1 0 0 1 1-1h3v14h-3a1 1 0 0 1 -1-1zm33-5a1 1 0 0 0 -1 1h-1v-4h4v4h-1a1 1 0 0 0 -1-1zm2 3a2 2 0 0 0 2-2v-4a2 2 0 0 0 -2-2h-4a2 2 0 0 0 -2 2v4a2 2 0 0 0 2 2h1v3h-8v-3h1a2 2 0 0 0 2-2v-4a2 2 0 0 0 -2-2h-4a2 2 0 0 0 -2 2v4a2 2 0 0 0 2 2h1v3h-16v-14h44v14h-16v-3zm-12-3a1 1 0 0 0 -1 1h-1v-4h4v4h-1a1 1 0 0 0 -1-1zm33 5a1 1 0 0 1 -1 1h-3v-14h3a1 1 0 0 1 1 1z" fill="#000000"></path><circle cx="4" cy="5" r="1" fill="#000000"></circle><circle cx="4" cy="13" r="1" fill="#000000"></circle><circle cx="56" cy="5" r="1" fill="#000000"></circle><circle cx="56" cy="13" r="1" fill="#000000"></circle><path d="m17 5h-4a2 2 0 0 0 -2 2v4a2 2 0 0 0 2 2h4a2 2 0 0 0 2-2v-4a2 2 0 0 0 -2-2zm-4 6v-4h4v4z" fill="#000000"></path><path d="m43 13h4a2 2 0 0 0 2-2v-4a2 2 0 0 0 -2-2h-4a2 2 0 0 0 -2 2v4a2 2 0 0 0 2 2zm0-6h4v4h-4z" fill="#000000"></path></svg>